<svg xmlns="http://www.w3.org/2000/svg" xmlns:xlink="http://www.w3.org/1999/xlink" width="373" zoomAndPan="magnify" viewBox="0 0 279.75 2129.249963" height="2839" preserveAspectRatio="xMidYMid meet" version="1.2"><defs><clipPath id="75851195bb"><path d="M 84 1973 L 212 1973 L 212 2101 L 84 2101 Z M 84 1973 "/></clipPath><clipPath id="5a94530d4f"><path d="M 57.738281 2037.109375 L 147.8125 1947.03125 L 237.890625 2037.109375 L 147.8125 2127.183594 Z M 57.738281 2037.109375 "/></clipPath><clipPath id="99c9b6b316"><path d="M 57.738281 2037.109375 L 147.8125 1947.03125 L 237.890625 2037.109375 L 147.8125 2127.183594 Z M 57.738281 2037.109375 "/></clipPath><clipPath id="2490edd622"><path d="M 131 2017 L 172 2017 L 172 2056 L 131 2056 Z M 131 2017 "/></clipPath><clipPath id="003fbd3916"><path d="M 57.738281 2037.109375 L 147.8125 1947.03125 L 237.890625 2037.109375 L 147.8125 2127.183594 Z M 57.738281 2037.109375 "/></clipPath><clipPath id="f3a9924056"><path d="M 57.738281 2037.109375 L 147.8125 1947.03125 L 237.890625 2037.109375 L 147.8125 2127.183594 Z M 57.738281 2037.109375 "/></clipPath><clipPath id="cf39b25543"><path d="M 123 2018 L 172 2018 L 172 2065 L 123 2065 Z M 123 2018 "/></clipPath><clipPath id="1764606efe"><path d="M 57.738281 2037.109375 L 147.8125 1947.03125 L 237.890625 2037.109375 L 147.8125 2127.183594 Z M 57.738281 2037.109375 "/></clipPath><clipPath id="9701afce0d"><path d="M 57.738281 2037.109375 L 147.8125 1947.03125 L 237.890625 2037.109375 L 147.8125 2127.183594 Z M 57.738281 2037.109375 "/></clipPath></defs><g id="8b3180bbbb"><g clip-rule="nonzero" clip-path="url(#75851195bb)"><g clip-rule="nonzero" clip-path="url(#5a94530d4f)"><g clip-rule="nonzero" clip-path="url(#99c9b6b316)"><path style=" stroke:none;fill-rule:nonzero;fill:#000000;fill-opacity:1;" d="M 192.851562 2082.144531 C 192.113281 2082.882812 191.359375 2083.601562 190.585938 2084.300781 C 189.816406 2085 189.027344 2085.683594 188.21875 2086.34375 C 187.414062 2087.003906 186.59375 2087.644531 185.753906 2088.265625 C 184.917969 2088.886719 184.066406 2089.488281 183.199219 2090.066406 C 182.332031 2090.644531 181.453125 2091.203125 180.558594 2091.738281 C 179.664062 2092.277344 178.757812 2092.789062 177.839844 2093.28125 C 176.917969 2093.773438 175.988281 2094.242188 175.046875 2094.6875 C 174.105469 2095.132812 173.152344 2095.554688 172.1875 2095.953125 C 171.226562 2096.351562 170.253906 2096.726562 169.269531 2097.078125 C 168.289062 2097.429688 167.300781 2097.757812 166.304688 2098.058594 C 165.304688 2098.359375 164.300781 2098.640625 163.289062 2098.890625 C 162.277344 2099.144531 161.261719 2099.375 160.238281 2099.578125 C 159.21875 2099.78125 158.191406 2099.957031 157.160156 2100.113281 C 156.128906 2100.265625 155.09375 2100.390625 154.058594 2100.496094 C 153.019531 2100.597656 151.980469 2100.671875 150.9375 2100.722656 C 149.898438 2100.777344 148.855469 2100.800781 147.8125 2100.800781 C 146.769531 2100.800781 145.730469 2100.777344 144.6875 2100.722656 C 143.648438 2100.671875 142.609375 2100.597656 141.570312 2100.496094 C 140.535156 2100.390625 139.5 2100.265625 138.46875 2100.113281 C 137.4375 2099.957031 136.410156 2099.78125 135.386719 2099.578125 C 134.367188 2099.375 133.347656 2099.144531 132.335938 2098.890625 C 131.328125 2098.640625 130.320312 2098.359375 129.324219 2098.058594 C 128.328125 2097.757812 127.335938 2097.429688 126.355469 2097.078125 C 125.375 2096.726562 124.402344 2096.351562 123.4375 2095.953125 C 122.476562 2095.554688 121.523438 2095.132812 120.582031 2094.6875 C 119.640625 2094.242188 118.707031 2093.773438 117.789062 2093.28125 C 116.871094 2092.789062 115.964844 2092.277344 115.070312 2091.738281 C 114.175781 2091.203125 113.292969 2090.644531 112.425781 2090.066406 C 111.5625 2089.488281 110.707031 2088.886719 109.871094 2088.265625 C 109.035156 2087.644531 108.214844 2087.003906 107.40625 2086.34375 C 106.601562 2085.683594 105.8125 2085 105.039062 2084.300781 C 104.269531 2083.601562 103.511719 2082.882812 102.777344 2082.144531 C 102.039062 2081.410156 101.320312 2080.652344 100.621094 2079.882812 C 99.921875 2079.109375 99.238281 2078.320312 98.578125 2077.515625 C 97.917969 2076.707031 97.277344 2075.886719 96.65625 2075.050781 C 96.035156 2074.210938 95.433594 2073.359375 94.855469 2072.496094 C 94.277344 2071.628906 93.71875 2070.746094 93.183594 2069.851562 C 92.644531 2068.957031 92.132812 2068.050781 91.640625 2067.132812 C 91.148438 2066.214844 90.679688 2065.28125 90.234375 2064.339844 C 89.789062 2063.398438 89.367188 2062.445312 88.96875 2061.484375 C 88.570312 2060.519531 88.195312 2059.546875 87.84375 2058.566406 C 87.492188 2057.585938 87.164062 2056.59375 86.863281 2055.597656 C 86.5625 2054.601562 86.28125 2053.59375 86.03125 2052.585938 C 85.777344 2051.574219 85.546875 2050.554688 85.34375 2049.535156 C 85.140625 2048.511719 84.964844 2047.484375 84.808594 2046.453125 C 84.65625 2045.421875 84.53125 2044.386719 84.425781 2043.351562 C 84.324219 2042.3125 84.25 2041.273438 84.199219 2040.234375 C 84.144531 2039.191406 84.121094 2038.152344 84.121094 2037.109375 C 84.121094 2036.066406 84.144531 2035.023438 84.199219 2033.984375 C 84.25 2032.941406 84.324219 2031.902344 84.425781 2030.863281 C 84.53125 2029.828125 84.65625 2028.792969 84.808594 2027.761719 C 84.964844 2026.730469 85.140625 2025.703125 85.34375 2024.683594 C 85.546875 2023.660156 85.777344 2022.644531 86.03125 2021.632812 C 86.28125 2020.621094 86.5625 2019.617188 86.863281 2018.617188 C 87.164062 2017.621094 87.492188 2016.632812 87.84375 2015.652344 C 88.195312 2014.667969 88.570312 2013.695312 88.96875 2012.734375 C 89.367188 2011.769531 89.789062 2010.816406 90.234375 2009.875 C 90.679688 2008.933594 91.148438 2008.003906 91.640625 2007.082031 C 92.132812 2006.164062 92.644531 2005.257812 93.183594 2004.363281 C 93.71875 2003.46875 94.277344 2002.589844 94.855469 2001.722656 C 95.433594 2000.855469 96.035156 2000.003906 96.65625 1999.167969 C 97.277344 1998.328125 97.917969 1997.507812 98.578125 1996.703125 C 99.238281 1995.894531 99.921875 1995.105469 100.621094 1994.335938 C 101.320312 1993.5625 102.039062 1992.808594 102.777344 1992.070312 C 103.511719 1991.332031 104.269531 1990.613281 105.039062 1989.914062 C 105.8125 1989.214844 106.601562 1988.535156 107.40625 1987.871094 C 108.214844 1987.210938 109.035156 1986.570312 109.871094 1985.949219 C 110.707031 1985.328125 111.5625 1984.726562 112.425781 1984.148438 C 113.292969 1983.570312 114.175781 1983.011719 115.070312 1982.476562 C 115.964844 1981.941406 116.871094 1981.425781 117.789062 1980.9375 C 118.707031 1980.445312 119.640625 1979.976562 120.582031 1979.53125 C 121.523438 1979.085938 122.476562 1978.664062 123.4375 1978.261719 C 124.402344 1977.863281 125.375 1977.488281 126.355469 1977.136719 C 127.335938 1976.789062 128.328125 1976.460938 129.324219 1976.15625 C 130.320312 1975.855469 131.328125 1975.578125 132.335938 1975.324219 C 133.347656 1975.070312 134.367188 1974.84375 135.386719 1974.640625 C 136.410156 1974.4375 137.4375 1974.257812 138.46875 1974.105469 C 139.5 1973.953125 140.535156 1973.824219 141.570312 1973.722656 C 142.609375 1973.621094 143.648438 1973.542969 144.6875 1973.492188 C 145.730469 1973.441406 146.769531 1973.414062 147.8125 1973.414062 C 148.855469 1973.414062 149.898438 1973.441406 150.9375 1973.492188 C 151.980469 1973.542969 153.019531 1973.621094 154.058594 1973.722656 C 155.09375 1973.824219 156.128906 1973.953125 157.160156 1974.105469 C 158.191406 1974.257812 159.21875 1974.4375 160.238281 1974.640625 C 161.261719 1974.84375 162.277344 1975.070312 163.289062 1975.324219 C 164.300781 1975.578125 165.304688 1975.855469 166.304688 1976.15625 C 167.300781 1976.460938 168.289062 1976.789062 169.269531 1977.136719 C 170.253906 1977.488281 171.226562 1977.863281 172.1875 1978.261719 C 173.152344 1978.664062 174.105469 1979.085938 175.046875 1979.53125 C 175.988281 1979.976562 176.917969 1980.445312 177.839844 1980.9375 C 178.757812 1981.425781 179.664062 1981.941406 180.558594 1982.476562 C 181.453125 1983.011719 182.332031 1983.570312 183.199219 1984.148438 C 184.066406 1984.726562 184.917969 1985.328125 185.753906 1985.949219 C 186.59375 1986.570312 187.414062 1987.210938 188.21875 1987.871094 C 189.027344 1988.535156 189.816406 1989.214844 190.585938 1989.914062 C 191.359375 1990.613281 192.113281 1991.332031 192.851562 1992.070312 C 193.585938 1992.808594 194.304688 1993.5625 195.003906 1994.335938 C 195.703125 1995.109375 196.382812 1995.898438 197.042969 1996.703125 C 197.703125 1997.511719 198.34375 1998.332031 198.964844 1999.167969 C 199.585938 2000.007812 200.183594 2000.859375 200.761719 2001.726562 C 201.339844 2002.59375 201.898438 2003.472656 202.433594 2004.367188 C 202.96875 2005.261719 203.480469 2006.167969 203.972656 2007.089844 C 204.460938 2008.007812 204.929688 2008.9375 205.375 2009.882812 C 205.820312 2010.824219 206.242188 2011.777344 206.640625 2012.738281 C 207.039062 2013.703125 207.414062 2014.675781 207.761719 2015.65625 C 208.113281 2016.636719 208.441406 2017.625 208.742188 2018.625 C 209.042969 2019.621094 209.320312 2020.625 209.574219 2021.636719 C 209.828125 2022.648438 210.054688 2023.664062 210.257812 2024.683594 C 210.460938 2025.707031 210.640625 2026.734375 210.792969 2027.765625 C 210.945312 2028.796875 211.074219 2029.828125 211.175781 2030.867188 C 211.277344 2031.902344 211.351562 2032.941406 211.402344 2033.984375 C 211.457031 2035.023438 211.480469 2036.066406 211.480469 2037.109375 C 211.480469 2038.148438 211.457031 2039.191406 211.402344 2040.234375 C 211.351562 2041.273438 211.277344 2042.3125 211.175781 2043.347656 C 211.074219 2044.386719 210.945312 2045.421875 210.792969 2046.453125 C 210.640625 2047.480469 210.460938 2048.507812 210.257812 2049.53125 C 210.054688 2050.554688 209.828125 2051.570312 209.574219 2052.582031 C 209.320312 2053.589844 209.042969 2054.59375 208.742188 2055.59375 C 208.441406 2056.589844 208.113281 2057.578125 207.761719 2058.5625 C 207.414062 2059.542969 207.039062 2060.515625 206.640625 2061.476562 C 206.242188 2062.441406 205.820312 2063.394531 205.375 2064.335938 C 204.929688 2065.277344 204.460938 2066.207031 203.972656 2067.128906 C 203.480469 2068.046875 202.96875 2068.953125 202.433594 2069.847656 C 201.898438 2070.742188 201.339844 2071.621094 200.761719 2072.488281 C 200.183594 2073.355469 199.585938 2074.210938 198.964844 2075.046875 C 198.34375 2075.882812 197.703125 2076.707031 197.042969 2077.511719 C 196.382812 2078.316406 195.703125 2079.109375 195.003906 2079.878906 C 194.304688 2080.652344 193.585938 2081.410156 192.851562 2082.144531 Z M 108.683594 1997.976562 C 107.402344 1999.257812 106.183594 2000.601562 105.035156 2002 C 103.886719 2003.402344 102.808594 2004.855469 101.800781 2006.363281 C 100.792969 2007.871094 99.863281 2009.421875 99.007812 2011.019531 C 98.152344 2012.621094 97.378906 2014.257812 96.6875 2015.929688 C 95.992188 2017.605469 95.382812 2019.308594 94.855469 2021.042969 C 94.332031 2022.777344 93.890625 2024.535156 93.539062 2026.3125 C 93.183594 2028.089844 92.917969 2029.878906 92.742188 2031.683594 C 92.5625 2033.488281 92.472656 2035.296875 92.472656 2037.109375 C 92.472656 2038.921875 92.5625 2040.730469 92.742188 2042.53125 C 92.917969 2044.335938 93.183594 2046.125 93.539062 2047.90625 C 93.890625 2049.683594 94.332031 2051.4375 94.855469 2053.171875 C 95.382812 2054.90625 95.992188 2056.613281 96.6875 2058.285156 C 97.378906 2059.960938 98.152344 2061.597656 99.007812 2063.195312 C 99.863281 2064.792969 100.792969 2066.347656 101.800781 2067.851562 C 102.808594 2069.359375 103.886719 2070.8125 105.035156 2072.214844 C 106.183594 2073.617188 107.402344 2074.957031 108.683594 2076.238281 C 109.964844 2077.519531 111.304688 2078.738281 112.707031 2079.886719 C 114.109375 2081.035156 115.5625 2082.113281 117.070312 2083.121094 C 118.574219 2084.128906 120.128906 2085.058594 121.726562 2085.914062 C 123.324219 2086.769531 124.960938 2087.542969 126.636719 2088.234375 C 128.308594 2088.929688 130.015625 2089.539062 131.75 2090.066406 C 133.484375 2090.589844 135.238281 2091.03125 137.015625 2091.382812 C 138.796875 2091.738281 140.585938 2092.003906 142.390625 2092.179688 C 144.191406 2092.359375 146 2092.449219 147.8125 2092.449219 C 149.625 2092.449219 151.433594 2092.359375 153.238281 2092.179688 C 155.042969 2092.003906 156.832031 2091.738281 158.609375 2091.382812 C 160.386719 2091.03125 162.144531 2090.589844 163.878906 2090.066406 C 165.613281 2089.539062 167.316406 2088.929688 168.992188 2088.234375 C 170.664062 2087.542969 172.300781 2086.769531 173.902344 2085.914062 C 175.5 2085.058594 177.050781 2084.128906 178.558594 2083.121094 C 180.066406 2082.113281 181.519531 2081.035156 182.921875 2079.886719 C 184.320312 2078.738281 185.664062 2077.519531 186.945312 2076.238281 C 188.226562 2074.957031 189.441406 2073.617188 190.59375 2072.214844 C 191.742188 2070.8125 192.820312 2069.359375 193.828125 2067.851562 C 194.835938 2066.347656 195.765625 2064.792969 196.617188 2063.195312 C 197.472656 2061.597656 198.246094 2059.960938 198.941406 2058.285156 C 199.632812 2056.613281 200.246094 2054.90625 200.769531 2053.171875 C 201.296875 2051.4375 201.738281 2049.683594 202.089844 2047.90625 C 202.445312 2046.125 202.710938 2044.335938 202.886719 2042.53125 C 203.066406 2040.730469 203.152344 2038.921875 203.152344 2037.109375 C 203.152344 2035.296875 203.066406 2033.488281 202.886719 2031.683594 C 202.710938 2029.878906 202.445312 2028.089844 202.089844 2026.3125 C 201.738281 2024.535156 201.296875 2022.777344 200.769531 2021.042969 C 200.246094 2019.308594 199.632812 2017.605469 198.941406 2015.929688 C 198.246094 2014.257812 197.472656 2012.621094 196.617188 2011.019531 C 195.765625 2009.421875 194.835938 2007.871094 193.828125 2006.363281 C 192.820312 2004.855469 191.742188 2003.402344 190.59375 2002 C 189.441406 2000.601562 188.226562 1999.257812 186.945312 1997.976562 C 185.664062 1996.695312 184.320312 1995.484375 182.917969 1994.335938 C 181.515625 1993.1875 180.0625 1992.109375 178.554688 1991.105469 C 177.046875 1990.101562 175.496094 1989.171875 173.894531 1988.316406 C 172.296875 1987.464844 170.660156 1986.691406 168.988281 1986 C 167.3125 1985.308594 165.609375 1984.699219 163.875 1984.171875 C 162.140625 1983.648438 160.382812 1983.207031 158.605469 1982.855469 C 156.828125 1982.503906 155.039062 1982.238281 153.234375 1982.058594 C 151.433594 1981.882812 149.625 1981.792969 147.8125 1981.792969 C 146 1981.792969 144.195312 1981.882812 142.390625 1982.058594 C 140.585938 1982.238281 138.796875 1982.503906 137.019531 1982.855469 C 135.242188 1983.207031 133.488281 1983.648438 131.753906 1984.171875 C 130.019531 1984.699219 128.316406 1985.308594 126.640625 1986 C 124.964844 1986.691406 123.332031 1987.464844 121.730469 1988.316406 C 120.132812 1989.171875 118.582031 1990.101562 117.074219 1991.105469 C 115.566406 1992.109375 114.109375 1993.1875 112.710938 1994.335938 C 111.308594 1995.484375 109.964844 1996.695312 108.683594 1997.976562 Z M 108.683594 1997.976562 "/></g></g></g><g clip-rule="nonzero" clip-path="url(#2490edd622)"><g clip-rule="nonzero" clip-path="url(#003fbd3916)"><g clip-rule="nonzero" clip-path="url(#f3a9924056)"><path style=" stroke:none;fill-rule:nonzero;fill:#000000;fill-opacity:1;" d="M 168.972656 2054.726562 C 168.566406 2055.132812 168.09375 2055.445312 167.558594 2055.65625 C 167.023438 2055.871094 166.464844 2055.96875 165.886719 2055.949219 C 165.613281 2055.941406 165.34375 2055.90625 165.074219 2055.84375 C 164.808594 2055.777344 164.550781 2055.691406 164.300781 2055.578125 C 164.050781 2055.464844 163.8125 2055.324219 163.589844 2055.164062 C 163.367188 2055.003906 163.160156 2054.824219 162.976562 2054.625 C 162.789062 2054.421875 162.621094 2054.203125 162.476562 2053.972656 C 162.332031 2053.738281 162.210938 2053.492188 162.117188 2053.234375 C 162.019531 2052.976562 161.949219 2052.714844 161.90625 2052.441406 C 161.863281 2052.171875 161.847656 2051.898438 161.855469 2051.625 L 162.816406 2026.535156 L 135.691406 2025.722656 C 135.410156 2025.726562 135.128906 2025.699219 134.855469 2025.644531 C 134.578125 2025.59375 134.3125 2025.511719 134.050781 2025.402344 C 133.792969 2025.296875 133.546875 2025.164062 133.3125 2025.007812 C 133.082031 2024.847656 132.867188 2024.667969 132.667969 2024.46875 C 132.472656 2024.269531 132.296875 2024.050781 132.144531 2023.8125 C 131.992188 2023.578125 131.863281 2023.328125 131.761719 2023.066406 C 131.660156 2022.804688 131.585938 2022.535156 131.539062 2022.257812 C 131.488281 2021.980469 131.46875 2021.703125 131.476562 2021.421875 C 131.488281 2021.140625 131.523438 2020.863281 131.585938 2020.589844 C 131.652344 2020.316406 131.742188 2020.050781 131.859375 2019.796875 C 131.980469 2019.539062 132.121094 2019.300781 132.289062 2019.074219 C 132.453125 2018.847656 132.640625 2018.640625 132.851562 2018.449219 C 133.058594 2018.261719 133.285156 2018.097656 133.523438 2017.953125 C 133.765625 2017.808594 134.019531 2017.691406 134.285156 2017.601562 C 134.550781 2017.507812 134.824219 2017.445312 135.101562 2017.40625 C 135.382812 2017.371094 135.660156 2017.359375 135.941406 2017.378906 L 167.289062 2018.308594 C 167.566406 2018.320312 167.835938 2018.355469 168.101562 2018.417969 C 168.371094 2018.480469 168.628906 2018.570312 168.878906 2018.683594 C 169.128906 2018.796875 169.367188 2018.933594 169.589844 2019.09375 C 169.8125 2019.253906 170.015625 2019.4375 170.203125 2019.636719 C 170.390625 2019.839844 170.558594 2020.054688 170.703125 2020.289062 C 170.84375 2020.523438 170.964844 2020.769531 171.0625 2021.027344 C 171.15625 2021.285156 171.226562 2021.546875 171.269531 2021.820312 C 171.316406 2022.089844 171.332031 2022.363281 171.320312 2022.636719 L 170.199219 2051.933594 C 170.15625 2053.023438 169.746094 2053.953125 168.972656 2054.726562 Z M 168.972656 2054.726562 "/></g></g></g><g clip-rule="nonzero" clip-path="url(#cf39b25543)"><g clip-rule="nonzero" clip-path="url(#1764606efe)"><g clip-rule="nonzero" clip-path="url(#9701afce0d)"><path style=" stroke:none;fill-rule:nonzero;fill:#000000;fill-opacity:1;" d="M 170.082031 2025.414062 L 130.09375 2063.628906 C 129.894531 2063.816406 129.679688 2063.988281 129.449219 2064.132812 C 129.21875 2064.28125 128.972656 2064.402344 128.71875 2064.503906 C 128.464844 2064.601562 128.199219 2064.675781 127.929688 2064.722656 C 127.660156 2064.769531 127.386719 2064.789062 127.113281 2064.785156 C 126.839844 2064.777344 126.570312 2064.746094 126.300781 2064.683594 C 126.035156 2064.625 125.773438 2064.539062 125.523438 2064.429688 C 125.273438 2064.320312 125.035156 2064.183594 124.808594 2064.027344 C 124.585938 2063.871094 124.378906 2063.691406 124.1875 2063.496094 C 124 2063.296875 123.832031 2063.082031 123.683594 2062.851562 C 123.535156 2062.617188 123.414062 2062.375 123.3125 2062.121094 C 123.214844 2061.863281 123.140625 2061.601562 123.09375 2061.332031 C 123.046875 2061.0625 123.027344 2060.789062 123.03125 2060.515625 C 123.039062 2060.242188 123.070312 2059.96875 123.128906 2059.703125 C 123.191406 2059.433594 123.273438 2059.175781 123.386719 2058.925781 C 123.496094 2058.671875 123.628906 2058.433594 123.785156 2058.210938 C 123.945312 2057.984375 124.121094 2057.777344 124.320312 2057.589844 L 164.292969 2019.386719 C 164.488281 2019.195312 164.699219 2019.023438 164.925781 2018.871094 C 165.152344 2018.71875 165.394531 2018.589844 165.648438 2018.484375 C 165.902344 2018.378906 166.164062 2018.300781 166.429688 2018.246094 C 166.699219 2018.195312 166.972656 2018.167969 167.246094 2018.167969 C 167.519531 2018.167969 167.792969 2018.195312 168.058594 2018.25 C 168.328125 2018.300781 168.589844 2018.382812 168.84375 2018.484375 C 169.097656 2018.589844 169.335938 2018.71875 169.5625 2018.871094 C 169.792969 2019.023438 170.003906 2019.199219 170.195312 2019.390625 C 170.390625 2019.585938 170.5625 2019.796875 170.714844 2020.023438 C 170.867188 2020.25 170.996094 2020.492188 171.101562 2020.746094 C 171.207031 2021 171.285156 2021.257812 171.339844 2021.527344 C 171.394531 2021.796875 171.421875 2022.070312 171.421875 2022.34375 C 171.421875 2022.617188 171.394531 2022.886719 171.339844 2023.15625 C 171.285156 2023.425781 171.207031 2023.6875 171.101562 2023.941406 C 171 2024.191406 170.871094 2024.433594 170.71875 2024.660156 C 170.566406 2024.890625 170.394531 2025.101562 170.199219 2025.296875 Z M 170.082031 2025.414062 "/></g></g></g><g style="fill:#000000;fill-opacity:1;"><g transform="translate(190.156288, 1711.104173)"><path style="stroke:none" d="M 0 -0.828125 L -97.9375 -37.8125 L -97.9375 -47.9375 L 0 -85.0625 L 0 -75.609375 L -30.140625 -64.375 L -30.140625 -21.5 L 0 -10.28125 Z M -37.671875 -23.96875 L -37.671875 -61.921875 L -88.484375 -43.015625 L -88.484375 -42.734375 Z M -37.671875 -23.96875 "/></g></g><g style="fill:#000000;fill-opacity:1;"><g transform="translate(190.156288, 1569.880501)"><path style="stroke:none" d="M 1.640625 -25.75 C 1.640625 -18.8125 -0.09375 -13.285156 -3.5625 -9.171875 C -7.03125 -5.066406 -11.640625 -3.015625 -17.390625 -3.015625 C -24.054688 -3.015625 -29.035156 -5.207031 -32.328125 -9.59375 C -35.617188 -13.976562 -37.992188 -20.597656 -39.453125 -29.453125 C -40.085938 -32.828125 -40.675781 -36.132812 -41.21875 -39.375 C -41.769531 -42.625 -42.800781 -45.320312 -44.3125 -47.46875 C -45.820312 -49.613281 -48.3125 -50.6875 -51.78125 -50.6875 C -56.34375 -50.6875 -59.71875 -49.15625 -61.90625 -46.09375 C -64.101562 -43.03125 -65.203125 -39.082031 -65.203125 -34.25 C -65.203125 -27.945312 -63.851562 -23.148438 -61.15625 -19.859375 C -58.46875 -16.578125 -54.703125 -14.753906 -49.859375 -14.390625 L -49.859375 -6.171875 C -53.421875 -6.441406 -56.867188 -7.46875 -60.203125 -9.25 C -63.535156 -11.03125 -66.273438 -13.925781 -68.421875 -17.9375 C -70.566406 -21.957031 -71.640625 -27.394531 -71.640625 -34.25 C -71.640625 -39.082031 -70.910156 -43.367188 -69.453125 -47.109375 C -67.992188 -50.859375 -65.523438 -53.804688 -62.046875 -55.953125 C -58.578125 -58.097656 -53.875 -59.171875 -47.9375 -59.171875 L -13.15625 -59.171875 C -11.507812 -59.171875 -9.863281 -59.285156 -8.21875 -59.515625 C -6.570312 -59.742188 -5.289062 -60.472656 -4.375 -61.703125 C -3.46875 -62.941406 -3.285156 -65.066406 -3.828125 -68.078125 L 0.140625 -68.078125 C 0.773438 -65.796875 1.09375 -63.601562 1.09375 -61.5 C 1.09375 -57.570312 0.132812 -54.8125 -1.78125 -53.21875 C -3.695312 -51.625 -6.617188 -50.828125 -10.546875 -50.828125 L -10.546875 -50.546875 C -6.347656 -47.898438 -3.265625 -44.429688 -1.296875 -40.140625 C 0.660156 -35.847656 1.640625 -31.050781 1.640625 -25.75 Z M -4.796875 -28.5 C -4.796875 -33.601562 -5.753906 -37.773438 -7.671875 -41.015625 C -9.585938 -44.265625 -11.914062 -46.6875 -14.65625 -48.28125 C -17.394531 -49.882812 -20.046875 -50.6875 -22.609375 -50.6875 L -40.265625 -50.6875 C -38.441406 -49.5 -37.117188 -47.238281 -36.296875 -43.90625 C -35.472656 -40.570312 -34.742188 -36.617188 -34.109375 -32.046875 C -33.285156 -25.929688 -31.773438 -20.976562 -29.578125 -17.1875 C -27.390625 -13.394531 -23.878906 -11.5 -19.046875 -11.5 C -14.296875 -11.5 -10.734375 -12.984375 -8.359375 -15.953125 C -5.984375 -18.921875 -4.796875 -23.101562 -4.796875 -28.5 Z M -4.796875 -28.5 "/></g></g><g style="fill:#000000;fill-opacity:1;"><g transform="translate(190.156288, 1445.093871)"><path style="stroke:none" d="M 0 -6.84375 L -70.40625 -6.84375 L -70.40625 -15.34375 L -58.21875 -15.34375 L -58.21875 -15.609375 C -60.5 -17.078125 -62.644531 -18.882812 -64.65625 -21.03125 C -66.664062 -23.175781 -68.332031 -25.890625 -69.65625 -29.171875 C -70.976562 -32.460938 -71.640625 -36.484375 -71.640625 -41.234375 C -71.640625 -45.160156 -70.816406 -48.742188 -69.171875 -51.984375 C -67.535156 -55.222656 -65.09375 -57.820312 -61.84375 -59.78125 C -58.601562 -61.75 -54.5625 -62.734375 -49.71875 -62.734375 L 0 -62.734375 L 0 -54.109375 L -45.890625 -54.109375 C -49.359375 -54.109375 -52.507812 -53.628906 -55.34375 -52.671875 C -58.175781 -51.710938 -60.410156 -50.019531 -62.046875 -47.59375 C -63.691406 -45.175781 -64.515625 -41.734375 -64.515625 -37.265625 C -64.515625 -32.691406 -63.578125 -28.757812 -61.703125 -25.46875 C -59.835938 -22.1875 -57.535156 -19.675781 -54.796875 -17.9375 C -52.054688 -16.207031 -49.316406 -15.34375 -46.578125 -15.34375 L 0 -15.34375 Z M 0 -6.84375 "/></g></g><g style="fill:#000000;fill-opacity:1;"><g transform="translate(190.156288, 1320.581185)"><path style="stroke:none" d="M 0 -6.84375 L -97.9375 -6.84375 L -97.9375 -15.34375 L -35.484375 -15.34375 L -70.40625 -50.546875 L -70.40625 -61.5 L -43.5625 -34.109375 L 0 -65.34375 L 0 -55.0625 L -37.53125 -28.21875 L -24.9375 -15.34375 L 0 -15.34375 Z M 0 -6.84375 "/></g></g><g style="fill:#000000;fill-opacity:1;"><g transform="translate(190.156288, 1199.629876)"><path style="stroke:none" d="M 0 -6.984375 L -97.9375 -6.984375 L -97.9375 -15.609375 L -58.21875 -15.609375 L -58.21875 -15.890625 C -60.5 -17.253906 -62.644531 -19.007812 -64.65625 -21.15625 C -66.664062 -23.3125 -68.332031 -26.007812 -69.65625 -29.25 C -70.976562 -32.488281 -71.640625 -36.4375 -71.640625 -41.09375 C -71.640625 -45.113281 -70.816406 -48.765625 -69.171875 -52.046875 C -67.535156 -55.335938 -65.09375 -57.960938 -61.84375 -59.921875 C -58.601562 -61.890625 -54.5625 -62.875 -49.71875 -62.875 L 0 -62.875 L 0 -54.375 L -45.890625 -54.375 C -49.359375 -54.375 -52.507812 -53.894531 -55.34375 -52.9375 C -58.175781 -51.976562 -60.410156 -50.289062 -62.046875 -47.875 C -63.691406 -45.457031 -64.515625 -41.960938 -64.515625 -37.390625 C -64.515625 -32.921875 -63.578125 -29.039062 -61.703125 -25.75 C -59.835938 -22.46875 -57.535156 -19.957031 -54.796875 -18.21875 C -52.054688 -16.476562 -49.316406 -15.609375 -46.578125 -15.609375 L 0 -15.609375 Z M 0 -6.984375 "/></g></g><g style="fill:#000000;fill-opacity:1;"><g transform="translate(190.156288, 1074.980213)"><path style="stroke:none" d="M 1.640625 -36.71875 C 1.640625 -29.769531 0.113281 -23.804688 -2.9375 -18.828125 C -6 -13.859375 -10.289062 -10.023438 -15.8125 -7.328125 C -21.34375 -4.628906 -27.71875 -3.28125 -34.9375 -3.28125 C -42.238281 -3.28125 -48.628906 -4.628906 -54.109375 -7.328125 C -59.585938 -10.023438 -63.878906 -13.859375 -66.984375 -18.828125 C -70.085938 -23.804688 -71.640625 -29.769531 -71.640625 -36.71875 C -71.640625 -43.65625 -70.085938 -49.632812 -66.984375 -54.65625 C -63.878906 -59.675781 -59.585938 -63.53125 -54.109375 -66.21875 C -48.628906 -68.914062 -42.238281 -70.265625 -34.9375 -70.265625 C -27.71875 -70.265625 -21.34375 -68.914062 -15.8125 -66.21875 C -10.289062 -63.53125 -6 -59.675781 -2.9375 -54.65625 C 0.113281 -49.632812 1.640625 -43.65625 1.640625 -36.71875 Z M -5.0625 -36.71875 C -5.0625 -44.65625 -7.820312 -50.789062 -13.34375 -55.125 C -18.875 -59.46875 -26.070312 -61.640625 -34.9375 -61.640625 C -43.789062 -61.640625 -50.976562 -59.46875 -56.5 -55.125 C -62.03125 -50.789062 -64.796875 -44.65625 -64.796875 -36.71875 C -64.796875 -28.769531 -62.03125 -22.625 -56.5 -18.28125 C -50.976562 -13.945312 -43.789062 -11.78125 -34.9375 -11.78125 C -26.070312 -11.78125 -18.875 -13.945312 -13.34375 -18.28125 C -7.820312 -22.625 -5.0625 -28.769531 -5.0625 -36.71875 Z M -5.0625 -36.71875 "/></g></g><g style="fill:#000000;fill-opacity:1;"><g transform="translate(190.156288, 946.084285)"><path style="stroke:none" d="M 0 -6.84375 L -70.40625 -6.84375 L -70.40625 -15.34375 L -58.21875 -15.34375 L -58.21875 -15.609375 C -60.5 -17.078125 -62.644531 -18.882812 -64.65625 -21.03125 C -66.664062 -23.175781 -68.332031 -25.890625 -69.65625 -29.171875 C -70.976562 -32.460938 -71.640625 -36.484375 -71.640625 -41.234375 C -71.640625 -45.160156 -70.816406 -48.742188 -69.171875 -51.984375 C -67.535156 -55.222656 -65.09375 -57.820312 -61.84375 -59.78125 C -58.601562 -61.75 -54.5625 -62.734375 -49.71875 -62.734375 L 0 -62.734375 L 0 -54.109375 L -45.890625 -54.109375 C -49.359375 -54.109375 -52.507812 -53.628906 -55.34375 -52.671875 C -58.175781 -51.710938 -60.410156 -50.019531 -62.046875 -47.59375 C -63.691406 -45.175781 -64.515625 -41.734375 -64.515625 -37.265625 C -64.515625 -32.691406 -63.578125 -28.757812 -61.703125 -25.46875 C -59.835938 -22.1875 -57.535156 -19.675781 -54.796875 -17.9375 C -52.054688 -16.207031 -49.316406 -15.34375 -46.578125 -15.34375 L 0 -15.34375 Z M 0 -6.84375 "/></g></g><g style="fill:#000000;fill-opacity:1;"><g transform="translate(190.156288, 821.571599)"><path style="stroke:none" d=""/></g></g><g style="fill:#000000;fill-opacity:1;"><g transform="translate(190.156288, 736.644812)"><path style="stroke:none" d="M 0 -8.359375 L -97.9375 -8.359375 L -97.9375 -45.484375 C -97.9375 -54.890625 -95.789062 -62.628906 -91.5 -68.703125 C -87.207031 -74.773438 -81.363281 -79.296875 -73.96875 -82.265625 C -66.570312 -85.234375 -58.125 -86.71875 -48.625 -86.71875 C -39.132812 -86.71875 -30.734375 -85.207031 -23.421875 -82.1875 C -16.117188 -79.175781 -10.390625 -74.609375 -6.234375 -68.484375 C -2.078125 -62.367188 0 -54.609375 0 -45.203125 Z M -7.9375 -17.671875 L -7.9375 -44.109375 C -7.9375 -54.972656 -11.566406 -63.210938 -18.828125 -68.828125 C -26.085938 -74.453125 -36.019531 -77.265625 -48.625 -77.265625 C -61.226562 -77.265625 -71.273438 -74.566406 -78.765625 -69.171875 C -86.253906 -63.785156 -90 -55.660156 -90 -44.796875 L -90 -17.671875 Z M -7.9375 -17.671875 "/></g></g><g style="fill:#000000;fill-opacity:1;"><g transform="translate(190.156288, 589.94209)"><path style="stroke:none" d="M 1.640625 -36.578125 C 1.640625 -29.722656 0.113281 -23.804688 -2.9375 -18.828125 C -6 -13.859375 -10.269531 -10.023438 -15.75 -7.328125 C -21.226562 -4.628906 -27.625 -3.28125 -34.9375 -3.28125 C -42.507812 -3.28125 -49.035156 -4.648438 -54.515625 -7.390625 C -59.992188 -10.128906 -64.21875 -13.960938 -67.1875 -18.890625 C -70.15625 -23.828125 -71.640625 -29.582031 -71.640625 -36.15625 C -71.640625 -43.28125 -70.019531 -49.148438 -66.78125 -53.765625 C -63.539062 -58.378906 -59.109375 -61.800781 -53.484375 -64.03125 C -47.867188 -66.269531 -41.410156 -67.390625 -34.109375 -67.390625 L -34.109375 -11.78125 C -24.972656 -11.78125 -17.847656 -14.0625 -12.734375 -18.625 C -7.617188 -23.195312 -5.0625 -29.132812 -5.0625 -36.4375 C -5.0625 -41.1875 -5.953125 -45.019531 -7.734375 -47.9375 C -9.515625 -50.863281 -11.660156 -53.125 -14.171875 -54.71875 C -16.679688 -56.320312 -18.988281 -57.394531 -21.09375 -57.9375 L -21.09375 -66.4375 C -14.519531 -64.882812 -9.085938 -61.640625 -4.796875 -56.703125 C -0.503906 -51.773438 1.640625 -45.066406 1.640625 -36.578125 Z M -40 -11.78125 L -40 -58.90625 C -44.382812 -58.90625 -48.492188 -58.082031 -52.328125 -56.4375 C -56.160156 -54.789062 -59.265625 -52.273438 -61.640625 -48.890625 C -64.015625 -45.515625 -65.203125 -41.269531 -65.203125 -36.15625 C -65.203125 -31.132812 -64.0625 -26.820312 -61.78125 -23.21875 C -59.5 -19.613281 -56.4375 -16.828125 -52.59375 -14.859375 C -48.757812 -12.898438 -44.5625 -11.875 -40 -11.78125 Z M -40 -11.78125 "/></g></g><g style="fill:#000000;fill-opacity:1;"><g transform="translate(190.156288, 464.059721)"><path style="stroke:none" d="M 0 -6.84375 L -97.9375 -6.84375 L -97.9375 -15.34375 L -35.484375 -15.34375 L -70.40625 -50.546875 L -70.40625 -61.5 L -43.5625 -34.109375 L 0 -65.34375 L 0 -55.0625 L -37.53125 -28.21875 L -24.9375 -15.34375 L 0 -15.34375 Z M 0 -6.84375 "/></g></g><g style="fill:#000000;fill-opacity:1;"><g transform="translate(190.156288, 343.108366)"><path style="stroke:none" d="M 0 -6.984375 L -97.9375 -6.984375 L -97.9375 -15.609375 L -58.21875 -15.609375 L -58.21875 -15.890625 C -60.5 -17.253906 -62.644531 -19.007812 -64.65625 -21.15625 C -66.664062 -23.3125 -68.332031 -26.007812 -69.65625 -29.25 C -70.976562 -32.488281 -71.640625 -36.4375 -71.640625 -41.09375 C -71.640625 -45.113281 -70.816406 -48.765625 -69.171875 -52.046875 C -67.535156 -55.335938 -65.09375 -57.960938 -61.84375 -59.921875 C -58.601562 -61.890625 -54.5625 -62.875 -49.71875 -62.875 L 0 -62.875 L 0 -54.375 L -45.890625 -54.375 C -49.359375 -54.375 -52.507812 -53.894531 -55.34375 -52.9375 C -58.175781 -51.976562 -60.410156 -50.289062 -62.046875 -47.875 C -63.691406 -45.457031 -64.515625 -41.960938 -64.515625 -37.390625 C -64.515625 -32.921875 -63.578125 -29.039062 -61.703125 -25.75 C -59.835938 -22.46875 -57.535156 -19.957031 -54.796875 -18.21875 C -52.054688 -16.476562 -49.316406 -15.609375 -46.578125 -15.609375 L 0 -15.609375 Z M 0 -6.984375 "/></g></g><g style="fill:#000000;fill-opacity:1;"><g transform="translate(190.156288, 218.458656)"><path style="stroke:none" d="M 1.640625 -25.75 C 1.640625 -18.8125 -0.09375 -13.285156 -3.5625 -9.171875 C -7.03125 -5.066406 -11.640625 -3.015625 -17.390625 -3.015625 C -24.054688 -3.015625 -29.035156 -5.207031 -32.328125 -9.59375 C -35.617188 -13.976562 -37.992188 -20.597656 -39.453125 -29.453125 C -40.085938 -32.828125 -40.675781 -36.132812 -41.21875 -39.375 C -41.769531 -42.625 -42.800781 -45.320312 -44.3125 -47.46875 C -45.820312 -49.613281 -48.3125 -50.6875 -51.78125 -50.6875 C -56.34375 -50.6875 -59.71875 -49.15625 -61.90625 -46.09375 C -64.101562 -43.03125 -65.203125 -39.082031 -65.203125 -34.25 C -65.203125 -27.945312 -63.851562 -23.148438 -61.15625 -19.859375 C -58.46875 -16.578125 -54.703125 -14.753906 -49.859375 -14.390625 L -49.859375 -6.171875 C -53.421875 -6.441406 -56.867188 -7.46875 -60.203125 -9.25 C -63.535156 -11.03125 -66.273438 -13.925781 -68.421875 -17.9375 C -70.566406 -21.957031 -71.640625 -27.394531 -71.640625 -34.25 C -71.640625 -39.082031 -70.910156 -43.367188 -69.453125 -47.109375 C -67.992188 -50.859375 -65.523438 -53.804688 -62.046875 -55.953125 C -58.578125 -58.097656 -53.875 -59.171875 -47.9375 -59.171875 L -13.15625 -59.171875 C -11.507812 -59.171875 -9.863281 -59.285156 -8.21875 -59.515625 C -6.570312 -59.742188 -5.289062 -60.472656 -4.375 -61.703125 C -3.46875 -62.941406 -3.285156 -65.066406 -3.828125 -68.078125 L 0.140625 -68.078125 C 0.773438 -65.796875 1.09375 -63.601562 1.09375 -61.5 C 1.09375 -57.570312 0.132812 -54.8125 -1.78125 -53.21875 C -3.695312 -51.625 -6.617188 -50.828125 -10.546875 -50.828125 L -10.546875 -50.546875 C -6.347656 -47.898438 -3.265625 -44.429688 -1.296875 -40.140625 C 0.660156 -35.847656 1.640625 -31.050781 1.640625 -25.75 Z M -4.796875 -28.5 C -4.796875 -33.601562 -5.753906 -37.773438 -7.671875 -41.015625 C -9.585938 -44.265625 -11.914062 -46.6875 -14.65625 -48.28125 C -17.394531 -49.882812 -20.046875 -50.6875 -22.609375 -50.6875 L -40.265625 -50.6875 C -38.441406 -49.5 -37.117188 -47.238281 -36.296875 -43.90625 C -35.472656 -40.570312 -34.742188 -36.617188 -34.109375 -32.046875 C -33.285156 -25.929688 -31.773438 -20.976562 -29.578125 -17.1875 C -27.390625 -13.394531 -23.878906 -11.5 -19.046875 -11.5 C -14.296875 -11.5 -10.734375 -12.984375 -8.359375 -15.953125 C -5.984375 -18.921875 -4.796875 -23.101562 -4.796875 -28.5 Z M -4.796875 -28.5 "/></g></g></g></svg>